Coordinates
version=1
nRows=17
nColumns=34
inDegrees=yes

Units are S.I. units (second, meters, Newtons, ...)
If the header above contains a line with 'inDegrees', this indicates whether rotational values are in degrees (yes) or radians (no).

endheader
time	pelvis_tilt	pelvis_list	pelvis_rotation	pelvis_tx	pelvis_ty	pelvis_tz	hip_flexion_r	hip_adduction_r	hip_rotation_r	knee_angle_r	ankle_angle_r	subtalar_angle_r	mtp_angle_r	hip_flexion_l	hip_adduction_l	hip_rotation_l	knee_angle_l	ankle_angle_l	subtalar_angle_l	mtp_angle_l	lumbar_extension	lumbar_bending	lumbar_rotation	arm_flex_r	arm_add_r	arm_rot_r	elbow_flex_r	pro_sup_r	arm_flex_l	arm_add_l	arm_rot_l	elbow_flex_l	pro_sup_l
      8.16666670	    -15.13146026	      0.25209107	     -3.68686969	     -0.10496373	      0.66025096	     -0.09099436	     71.17445507	    -13.77953295	     -8.83490712	     87.10988415	     39.08061720	     -6.17302211	      0.00000000	     71.66506169	    -20.39489371	     -6.28610878	     88.50377571	     42.38727159	      3.24336481	      0.00000000	    -26.66953665	      0.94630585	      4.33949468	     94.09694757	      4.64435328	     75.09378293	    122.44042658	    100.97158592	    102.13548776	     10.48341759	     76.73259195	    117.31125147	     73.28377433
      8.18333330	    -15.44796002	      0.39018863	     -4.22553069	     -0.09766353	      0.64813381	     -0.08984443	     73.23868644	    -13.90460419	     -8.25815522	     90.00879839	     39.59498900	     -6.02123408	      0.00000000	     73.25330068	    -21.02867745	     -5.70114821	     91.38093065	     43.36500007	      3.16041639	      0.00000000	    -27.00088530	      0.73074859	      4.62354138	     94.73852479	      4.43314385	     74.86324604	    121.80655871	    100.90394371	    102.69003959	     10.19584653	     76.64607137	    117.34110124	     73.38918278
      8.20000000	    -16.91980999	      0.78407966	     -4.94976181	     -0.09805051	      0.63160128	     -0.08873396	     76.75169812	    -13.77851561	     -7.63999487	     92.85591367	     39.91908490	     -6.00975740	      0.00000000	     76.16471135	    -21.88358620	     -5.37490355	     94.13620400	     44.92500595	      3.99678619	      0.00000000	    -25.82221421	      0.23295977	      4.56086420	     94.42510247	      5.06088431	     75.48005603	    121.55597877	    100.73093599	    102.82049899	      9.49504985	     77.19245819	    118.11937630	     73.79104300
      8.21666670	    -17.87009916	      0.86962720	     -5.35641773	     -0.09976084	      0.61679846	     -0.08779065	     79.79002090	    -13.53303066	     -7.06882529	     95.84628885	     40.04387300	     -6.70201519	      0.00000000	     79.00744148	    -22.60141813	     -4.70405054	     96.68364730	     45.55930696	      3.78872003	      0.00000000	    -25.45806018	     -0.07504014	      4.39355107	     94.75230839	      5.29567959	     74.87894712	    120.77951711	    100.54134984	    103.25891821	      8.95443235	     77.07306791	    118.45108982	     74.14004416
      8.23333330	    -19.31776909	      0.99664404	     -5.35202488	     -0.08952485	      0.60066269	     -0.08784537	     82.70797190	    -13.71045524	     -6.47470874	     98.71151171	     40.78239871	     -7.04189154	      0.00000000	     81.91377639	    -23.30068135	     -4.22571559	     99.17801143	     46.27005752	      3.88500823	      0.00000000	    -24.17070792	     -0.16727614	      4.42806527	     94.32496086	      4.85699114	     74.31547102	    119.70896266	    100.40851401	    102.56159987	      9.05433564	     77.21199786	    118.95592940	     74.45687574
      8.25000000	    -21.38774723	      1.03179042	     -5.18810021	     -0.09045378	      0.58827747	     -0.08931051	     85.97027349	    -13.92319809	     -6.00462878	    100.86140011	     42.05309250	     -6.22903456	      0.00000000	     85.66927127	    -23.42266471	     -3.41970190	    101.42603510	     46.47709824	      3.71209703	      0.00000000	    -22.90199092	     -0.20133915	      4.17216840	     94.51789611	      4.64937659	     74.34159718	    119.99504780	    100.34553068	    102.42160106	      9.07159531	     77.22304993	    118.85204798	     74.80672956
      8.26666670	    -23.11536405	      1.08511082	     -4.97349079	     -0.08958931	      0.57210021	     -0.08978627	     89.25132961	    -14.26826361	     -5.38671704	    103.17854996	     43.54226339	     -4.55316930	      0.00000000	     89.07728599	    -23.55941909	     -2.75575417	    103.55268052	     46.97184884	      3.74853422	      0.00000000	    -21.61007149	     -0.28399158	      4.03263889	     94.51360501	      4.24027353	     74.65814154	    120.05056443	    100.31450754	    101.98511961	      9.40624467	     77.44890808	    118.82886756	     75.20202674
      8.28333330	    -25.38698902	      1.21111157	     -4.52998283	     -0.08112398	      0.55579805	     -0.08888574	     92.58404493	    -14.94519801	     -4.81421037	    105.42282034	     45.47484249	     -2.48113016	      0.00000000	     92.68982192	    -23.87995630	     -2.26209624	    105.75054717	     47.29765079	      3.67546822	      0.00000000	    -19.28799120	     -0.20835040	      4.10674223	     93.99209604	      3.79454582	     75.34776845	    120.16972488	    100.29978576	    100.74724880	      9.78966998	     78.27383470	    119.21641501	     75.74785622
      8.30000000	    -28.18604273	      1.34545275	     -4.26595699	     -0.07098690	      0.53981349	     -0.09114557	     95.91324600	    -15.66804163	     -4.20777991	    107.83116250	     46.75090282	     -1.58696051	      0.00000000	     96.53666330	    -24.11608808	     -1.67182385	    108.03634088	     48.27896035	      3.68300666	      0.00000000	    -16.06154964	     -0.01327872	      4.25135970	     92.23045731	      3.47659960	     76.63598406	    120.73869367	    100.41252181	     98.64479616	     10.51997977	     79.26181934	    119.16591803	     76.66312790
      8.31666670	    -30.04712508	      1.63759635	     -4.22504719	     -0.07553499	      0.52058733	     -0.09114566	     99.61864319	    -16.58627237	     -3.65942159	    110.31123299	     47.98718377	     -0.41990056	      0.00000000	    100.32238755	    -24.18656936	     -0.75496712	    110.95305073	     48.99346169	      3.30958730	      0.00000000	    -13.76917810	     -0.26483030	      4.30742659	     91.26167007	      3.21610790	     77.03024929	    120.93262372	    100.46245647	     97.85943921	     10.87798274	     80.16544362	    119.32413203	     77.50955996
      8.33333330	    -32.14682315	      1.61137310	     -3.63683937	     -0.07680974	      0.50363803	     -0.09195549	    103.67281709	    -17.85782665	     -3.16609630	    113.02496539	     49.27169512	      0.71083245	      0.00000000	    104.83764977	    -23.78525309	      0.56736746	    113.92531116	     48.82496688	      3.29372994	      0.00000000	    -11.62520416	     -0.15505354	      4.26709299	     90.95992625	      2.75446075	     77.68670641	    121.56990198	    100.46645806	     97.31763152	     11.51453334	     80.57099690	    119.15720986	     78.23935689
      8.35000000	    -33.75212165	      1.72971151	     -3.68832339	     -0.08130328	      0.48335689	     -0.09387393	    107.67094645	    -19.02347355	     -2.79885421	    115.52588721	     50.00000000	      2.12843704	      0.00000000	    109.40712040	    -23.81886014	      1.95174700	    116.95776024	     48.92854943	      3.38730799	      0.00000000	     -9.98947361	     -0.15336003	      4.31920055	     91.27926174	      2.52000471	     78.00073316	    121.94894515	    100.37346392	     97.65428316	     11.44611266	     80.38335131	    118.86941121	     78.73655941
      8.36666670	    -34.60024953	      1.68580598	     -3.76630975	     -0.08600186	      0.46313343	     -0.09600690	    111.50578526	    -20.13748628	     -2.30643737	    118.19227041	     50.00000000	      3.14805065	      0.00000000	    113.94644110	    -23.63138605	      3.80093775	    120.16799081	     49.00141596	      4.00717915	      0.00000000	     -9.41975411	     -0.11164211	      4.27652737	     92.63793433	      2.43013003	     78.19650026	    122.46639108	    100.22921116	     98.95710529	     11.52227781	     79.99749228	    118.73605131	     78.94768101
      8.38333330	    -35.53571979	      1.63927481	     -3.83551968	     -0.09131849	      0.44184429	     -0.09861951	    115.62377430	    -21.26654940	     -1.53475612	    120.98155298	     50.00000000	      4.12242298	      0.00000000	    118.55310486	    -23.43912729	      5.64701139	    123.48239674	     49.55440757	      5.45244959	      0.00000000	     -8.73101212	      0.07505897	      4.34370289	     94.35630214	      2.35754688	     77.75387938	    122.61344696	     99.93958816	    100.48185712	     11.52789546	     79.02379397	    118.17057609	     78.99778824
      8.40000000	    -34.42298891	      2.52085733	     -2.81697593	     -0.08260225	      0.42103243	     -0.10168944	    118.98882557	    -23.09196348	      2.11109398	    125.33112146	     50.00000000	      4.13393808	      0.00000000	    119.99999986	    -23.02994896	      5.81412662	    126.92435015	     50.00000000	      6.25145385	      0.00000000	    -10.03071742	     -0.60641849	      3.03789686	     95.93354415	      2.68975597	     77.10682188	    122.30715469	     99.52114712	    101.83812504	     10.96010798	     77.62467130	    117.98676718	     78.90618158
      8.41666670	    -32.04059254	      3.09765072	     -2.14865753	     -0.08342195	      0.40751811	     -0.10239106	    119.99999986	    -24.42079920	      5.36640032	    128.95877215	     49.84057456	      3.97245324	      0.00000000	    119.99999986	    -22.74340311	      6.29575852	    130.18005161	     50.00000000	      6.79731013	      0.00000000	    -13.13774676	     -1.28320086	      2.24794605	     97.86590382	      2.80563093	     76.45393300	    122.20652349	     99.27962162	    103.69687819	     11.00088744	     76.46994259	    117.58064128	     78.79544025
      8.43333330	    -29.33502643	      2.66350887	     -1.69333122	     -0.07507021	      0.39282283	     -0.10339099	    119.99999986	    -25.93615024	      7.64882920	    132.42211577	     49.69511445	      4.12335867	      0.00000000	    119.99999986	    -22.93099041	      8.17472677	    133.30722434	     50.00000000	      7.58181351	      0.00000000	    -16.02495979	     -0.68461061	      1.75928410	     99.10747002	      2.90123947	     75.59295751	    121.93176589	     99.00931670	    105.00004592	     10.49686634	     75.43555482	    117.33249520	     78.62018329
